<?xml version="1.0" encoding="UTF-8"?>
<svg id="Layer_1" data-name="Layer 1" xmlns="http://www.w3.org/2000/svg" viewBox="0 0 255.24 255.24">
  <defs>
    <style>
      .cls-1 {
        fill: #f7ecf4;
      }

      .cls-2 {
        fill: #224a22;
      }

      .cls-3 {
        fill: #fff;
      }

      .cls-4 {
        fill: #d57428;
      }

      .cls-5 {
        fill: #010101;
      }
    </style>
  </defs>
  <g>
    <rect class="cls-1" x=".5" y=".5" width="254.24" height="254.24" rx="52.74" ry="52.74"/>
    <path class="cls-5" d="M202,1c28.81,0,52.24,23.44,52.24,52.24v148.75c0,28.81-23.44,52.24-52.24,52.24H53.24c-28.81,0-52.24-23.44-52.24-52.24V53.24C1,24.44,24.44,1,53.24,1h148.75M202,0H53.24C23.84,0,0,23.84,0,53.24v148.75c0,29.41,23.84,53.24,53.24,53.24h148.75c29.41,0,53.24-23.84,53.24-53.24V53.24c0-29.41-23.84-53.24-53.24-53.24h0Z"/>
  </g>
  <g id="inside-squares">
    <g>
      <rect class="cls-4" x="55.05" y="41.17" width="24.52" height="24.52" rx="6.19" ry="6.19"/>
      <path class="cls-5" d="M73.38,41.67c3.14,0,5.69,2.55,5.69,5.69v12.15c0,3.14-2.55,5.69-5.69,5.69h-12.15c-3.14,0-5.69-2.55-5.69-5.69v-12.15c0-3.14,2.55-5.69,5.69-5.69h12.15M73.38,40.67h-12.15c-3.69,0-6.69,2.99-6.69,6.69v12.15c0,3.69,2.99,6.69,6.69,6.69h12.15c3.69,0,6.69-2.99,6.69-6.69v-12.15c0-3.69-2.99-6.69-6.69-6.69h0Z"/>
    </g>
    <g>
      <path class="cls-3" d="M156.42,41.17h7.6c4.67,0,8.46,3.79,8.46,8.46v7.6c0,4.67-3.79,8.46-8.46,8.46h-7.6c-4.67,0-8.46-3.79-8.46-8.46v-7.6c0-4.67,3.79-8.46,8.46-8.46Z"/>
      <path class="cls-5" d="M164.02,41.67c4.39,0,7.96,3.57,7.96,7.96v7.6c0,4.39-3.57,7.96-7.96,7.96h-7.6c-4.39,0-7.96-3.57-7.96-7.96v-7.6c0-4.39,3.57-7.96,7.96-7.96h7.6M164.02,40.67h-7.6c-4.95,0-8.96,4.01-8.96,8.96v7.6c0,4.95,4.01,8.96,8.96,8.96h7.6c4.95,0,8.96-4.01,8.96-8.96v-7.6c0-4.95-4.01-8.96-8.96-8.96h0Z"/>
    </g>
    <g>
      <path class="cls-3" d="M187.05,41.17h7.6c4.67,0,8.46,3.79,8.46,8.46v7.6c0,4.67-3.79,8.46-8.46,8.46h-7.6c-4.67,0-8.46-3.79-8.46-8.46v-7.6c0-4.67,3.79-8.46,8.46-8.46Z"/>
      <path class="cls-5" d="M194.64,41.67c4.39,0,7.96,3.57,7.96,7.96v7.6c0,4.39-3.57,7.96-7.96,7.96h-7.6c-4.39,0-7.96-3.57-7.96-7.96v-7.6c0-4.39,3.57-7.96,7.96-7.96h7.6M194.64,40.67h-7.6c-4.95,0-8.96,4.01-8.96,8.96v7.6c0,4.95,4.01,8.96,8.96,8.96h7.6c4.95,0,8.96-4.01,8.96-8.96v-7.6c0-4.95-4.01-8.96-8.96-8.96h0Z"/>
    </g>
    <g>
      <rect class="cls-3" x="55.48" y="72.34" width="24.52" height="24.52" rx="8.46" ry="8.46"/>
      <path class="cls-5" d="M71.54,72.84c4.39,0,7.96,3.57,7.96,7.96v7.6c0,4.39-3.57,7.96-7.96,7.96h-7.6c-4.39,0-7.96-3.57-7.96-7.96v-7.6c0-4.39,3.57-7.96,7.96-7.96h7.6M71.54,71.84h-7.6c-4.95,0-8.96,4.01-8.96,8.96v7.6c0,4.95,4.01,8.96,8.96,8.96h7.6c4.95,0,8.96-4.01,8.96-8.96v-7.6c0-4.95-4.01-8.96-8.96-8.96h0Z"/>
    </g>
    <g>
      <rect class="cls-3" x="87.13" y="72.34" width="24.52" height="24.52" rx="8.46" ry="8.46"/>
      <path class="cls-5" d="M103.19,72.84c4.39,0,7.96,3.57,7.96,7.96v7.6c0,4.39-3.57,7.96-7.96,7.96h-7.6c-4.39,0-7.96-3.57-7.96-7.96v-7.6c0-4.39,3.57-7.96,7.96-7.96h7.6M103.19,71.84h-7.6c-4.95,0-8.96,4.01-8.96,8.96v7.6c0,4.95,4.01,8.96,8.96,8.96h7.6c4.95,0,8.96-4.01,8.96-8.96v-7.6c0-4.95-4.01-8.96-8.96-8.96h0Z"/>
    </g>
    <g>
      <path class="cls-4" d="M126.22,72.34h7.6c4.67,0,8.46,3.79,8.46,8.46v7.6c0,4.67-3.79,8.46-8.46,8.46h-7.6c-4.67,0-8.46-3.79-8.46-8.46v-7.6c0-4.67,3.79-8.46,8.46-8.46Z"/>
      <path class="cls-5" d="M133.82,72.84c4.39,0,7.96,3.57,7.96,7.96v7.6c0,4.39-3.57,7.96-7.96,7.96h-7.6c-4.39,0-7.96-3.57-7.96-7.96v-7.6c0-4.39,3.57-7.96,7.96-7.96h7.6M133.82,71.84h-7.6c-4.95,0-8.96,4.01-8.96,8.96v7.6c0,4.95,4.01,8.96,8.96,8.96h7.6c4.95,0,8.96-4.01,8.96-8.96v-7.6c0-4.95-4.01-8.96-8.96-8.96h0Z"/>
    </g>
    <g>
      <path class="cls-3" d="M156.85,72.34h7.6c4.67,0,8.46,3.79,8.46,8.46v7.6c0,4.67-3.79,8.46-8.46,8.46h-7.6c-4.67,0-8.46-3.79-8.46-8.46v-7.6c0-4.67,3.79-8.46,8.46-8.46Z"/>
      <path class="cls-5" d="M164.45,72.84c4.39,0,7.96,3.57,7.96,7.96v7.6c0,4.39-3.57,7.96-7.96,7.96h-7.6c-4.39,0-7.96-3.57-7.96-7.96v-7.6c0-4.39,3.57-7.96,7.96-7.96h7.6M164.45,71.84h-7.6c-4.95,0-8.96,4.01-8.96,8.96v7.6c0,4.95,4.01,8.96,8.96,8.96h7.6c4.95,0,8.96-4.01,8.96-8.96v-7.6c0-4.95-4.01-8.96-8.96-8.96h0Z"/>
    </g>
    <g>
      <path class="cls-3" d="M187.48,72.34h7.6c4.67,0,8.46,3.79,8.46,8.46v7.6c0,4.67-3.79,8.46-8.46,8.46h-7.6c-4.67,0-8.46-3.79-8.46-8.46v-7.6c0-4.67,3.79-8.46,8.46-8.46Z"/>
      <path class="cls-5" d="M195.08,72.84c4.39,0,7.96,3.57,7.96,7.96v7.6c0,4.39-3.57,7.96-7.96,7.96h-7.6c-4.39,0-7.96-3.57-7.96-7.96v-7.6c0-4.39,3.57-7.96,7.96-7.96h7.6M195.08,71.84h-7.6c-4.95,0-8.96,4.01-8.96,8.96v7.6c0,4.95,4.01,8.96,8.96,8.96h7.6c4.95,0,8.96-4.01,8.96-8.96v-7.6c0-4.95-4.01-8.96-8.96-8.96h0Z"/>
    </g>
    <g>
      <rect class="cls-3" x="55.48" y="102.97" width="24.52" height="24.52" rx="8.46" ry="8.46"/>
      <path class="cls-5" d="M71.54,103.47c4.39,0,7.96,3.57,7.96,7.96v7.6c0,4.39-3.57,7.96-7.96,7.96h-7.6c-4.39,0-7.96-3.57-7.96-7.96v-7.6c0-4.39,3.57-7.96,7.96-7.96h7.6M71.54,102.47h-7.6c-4.95,0-8.96,4.01-8.96,8.96v7.6c0,4.95,4.01,8.96,8.96,8.96h7.6c4.95,0,8.96-4.01,8.96-8.96v-7.6c0-4.95-4.01-8.96-8.96-8.96h0Z"/>
    </g>
    <g>
      <rect class="cls-3" x="87.13" y="102.97" width="24.52" height="24.52" rx="8.46" ry="8.46"/>
      <path class="cls-5" d="M103.19,103.47c4.39,0,7.96,3.57,7.96,7.96v7.6c0,4.39-3.57,7.96-7.96,7.96h-7.6c-4.39,0-7.96-3.57-7.96-7.96v-7.6c0-4.39,3.57-7.96,7.96-7.96h7.6M103.19,102.47h-7.6c-4.95,0-8.96,4.01-8.96,8.96v7.6c0,4.95,4.01,8.96,8.96,8.96h7.6c4.95,0,8.96-4.01,8.96-8.96v-7.6c0-4.95-4.01-8.96-8.96-8.96h0Z"/>
    </g>
    <g>
      <path class="cls-3" d="M126.22,102.97h7.6c4.67,0,8.46,3.79,8.46,8.46v7.6c0,4.67-3.79,8.46-8.46,8.46h-7.6c-4.67,0-8.46-3.79-8.46-8.46v-7.6c0-4.67,3.79-8.46,8.46-8.46Z"/>
      <path class="cls-5" d="M133.82,103.47c4.39,0,7.96,3.57,7.96,7.96v7.6c0,4.39-3.57,7.96-7.96,7.96h-7.6c-4.39,0-7.96-3.57-7.96-7.96v-7.6c0-4.39,3.57-7.96,7.96-7.96h7.6M133.82,102.47h-7.6c-4.95,0-8.96,4.01-8.96,8.96v7.6c0,4.95,4.01,8.96,8.96,8.96h7.6c4.95,0,8.96-4.01,8.96-8.96v-7.6c0-4.95-4.01-8.96-8.96-8.96h0Z"/>
    </g>
    <g>
      <rect class="cls-3" x="148.39" y="102.97" width="24.52" height="24.52" rx="8.46" ry="8.46"/>
      <path class="cls-5" d="M164.45,103.47c4.39,0,7.96,3.57,7.96,7.96v7.6c0,4.39-3.57,7.96-7.96,7.96h-7.6c-4.39,0-7.96-3.57-7.96-7.96v-7.6c0-4.39,3.57-7.96,7.96-7.96h7.6M164.45,102.47h-7.6c-4.95,0-8.96,4.01-8.96,8.96v7.6c0,4.95,4.01,8.96,8.96,8.96h7.6c4.95,0,8.96-4.01,8.96-8.96v-7.6c0-4.95-4.01-8.96-8.96-8.96h0Z"/>
    </g>
    <g>
      <rect class="cls-3" x="179.02" y="102.97" width="24.52" height="24.52" rx="8.46" ry="8.46"/>
      <path class="cls-5" d="M195.08,103.47c4.39,0,7.96,3.57,7.96,7.96v7.6c0,4.39-3.57,7.96-7.96,7.96h-7.6c-4.39,0-7.96-3.57-7.96-7.96v-7.6c0-4.39,3.57-7.96,7.96-7.96h7.6M195.08,102.47h-7.6c-4.95,0-8.96,4.01-8.96,8.96v7.6c0,4.95,4.01,8.96,8.96,8.96h7.6c4.95,0,8.96-4.01,8.96-8.96v-7.6c0-4.95-4.01-8.96-8.96-8.96h0Z"/>
    </g>
    <g>
      <path class="cls-3" d="M63.51,133.57h7.6c4.67,0,8.46,3.79,8.46,8.46v7.6c0,4.67-3.79,8.46-8.46,8.46h-7.6c-4.67,0-8.46-3.79-8.46-8.46v-7.6c0-4.67,3.79-8.46,8.46-8.46Z"/>
      <path class="cls-5" d="M71.11,134.07c4.39,0,7.96,3.57,7.96,7.96v7.6c0,4.39-3.57,7.96-7.96,7.96h-7.6c-4.39,0-7.96-3.57-7.96-7.96v-7.6c0-4.39,3.57-7.96,7.96-7.96h7.6M71.11,133.07h-7.6c-4.95,0-8.96,4.01-8.96,8.96v7.6c0,4.95,4.01,8.96,8.96,8.96h7.6c4.95,0,8.96-4.01,8.96-8.96v-7.6c0-4.95-4.01-8.96-8.96-8.96h0Z"/>
    </g>
    <g>
      <path class="cls-5" d="M95.16,133.57h7.6c4.67,0,8.46,3.79,8.46,8.46v7.6c0,4.67-3.79,8.46-8.46,8.46h-7.6c-4.67,0-8.46-3.79-8.46-8.46v-7.6c0-4.67,3.79-8.46,8.46-8.46Z"/>
      <path class="cls-5" d="M102.76,134.07c4.39,0,7.96,3.57,7.96,7.96v7.6c0,4.39-3.57,7.96-7.96,7.96h-7.6c-4.39,0-7.96-3.57-7.96-7.96v-7.6c0-4.39,3.57-7.96,7.96-7.96h7.6M102.76,133.07h-7.6c-4.95,0-8.96,4.01-8.96,8.96v7.6c0,4.95,4.01,8.96,8.96,8.96h7.6c4.95,0,8.96-4.01,8.96-8.96v-7.6c0-4.95-4.01-8.96-8.96-8.96h0Z"/>
    </g>
    <g>
      <path class="cls-3" d="M125.79,133.57h7.6c4.67,0,8.46,3.79,8.46,8.46v7.6c0,4.67-3.79,8.46-8.46,8.46h-7.6c-4.67,0-8.46-3.79-8.46-8.46v-7.6c0-4.67,3.79-8.46,8.46-8.46Z"/>
      <path class="cls-5" d="M133.39,134.07c4.39,0,7.96,3.57,7.96,7.96v7.6c0,4.39-3.57,7.96-7.96,7.96h-7.6c-4.39,0-7.96-3.57-7.96-7.96v-7.6c0-4.39,3.57-7.96,7.96-7.96h7.6M133.39,133.07h-7.6c-4.95,0-8.96,4.01-8.96,8.96v7.6c0,4.95,4.01,8.96,8.96,8.96h7.6c4.95,0,8.96-4.01,8.96-8.96v-7.6c0-4.95-4.01-8.96-8.96-8.96h0Z"/>
    </g>
    <g>
      <path class="cls-2" d="M156.42,133.57h7.6c4.67,0,8.46,3.79,8.46,8.46v7.6c0,4.67-3.79,8.46-8.46,8.46h-7.6c-4.67,0-8.46-3.79-8.46-8.46v-7.6c0-4.67,3.79-8.46,8.46-8.46Z"/>
      <path class="cls-5" d="M164.02,134.07c4.39,0,7.96,3.57,7.96,7.96v7.6c0,4.39-3.57,7.96-7.96,7.96h-7.6c-4.39,0-7.96-3.57-7.96-7.96v-7.6c0-4.39,3.57-7.96,7.96-7.96h7.6M164.02,133.07h-7.6c-4.95,0-8.96,4.01-8.96,8.96v7.6c0,4.95,4.01,8.96,8.96,8.96h7.6c4.95,0,8.96-4.01,8.96-8.96v-7.6c0-4.95-4.01-8.96-8.96-8.96h0Z"/>
    </g>
    <g>
      <path class="cls-3" d="M187.05,133.57h7.6c4.67,0,8.46,3.79,8.46,8.46v7.6c0,4.67-3.79,8.46-8.46,8.46h-7.6c-4.67,0-8.46-3.79-8.46-8.46v-7.6c0-4.67,3.79-8.46,8.46-8.46Z"/>
      <path class="cls-5" d="M194.64,134.07c4.39,0,7.96,3.57,7.96,7.96v7.6c0,4.39-3.57,7.96-7.96,7.96h-7.6c-4.39,0-7.96-3.57-7.96-7.96v-7.6c0-4.39,3.57-7.96,7.96-7.96h7.6M194.64,133.07h-7.6c-4.95,0-8.96,4.01-8.96,8.96v7.6c0,4.95,4.01,8.96,8.96,8.96h7.6c4.95,0,8.96-4.01,8.96-8.96v-7.6c0-4.95-4.01-8.96-8.96-8.96h0Z"/>
    </g>
    <g>
      <rect class="cls-3" x="55.48" y="164.23" width="24.52" height="24.52" rx="8.46" ry="8.46"/>
      <path class="cls-5" d="M71.54,164.73c4.39,0,7.96,3.57,7.96,7.96v7.6c0,4.39-3.57,7.96-7.96,7.96h-7.6c-4.39,0-7.96-3.57-7.96-7.96v-7.6c0-4.39,3.57-7.96,7.96-7.96h7.6M71.54,163.73h-7.6c-4.95,0-8.96,4.01-8.96,8.96v7.6c0,4.95,4.01,8.96,8.96,8.96h7.6c4.95,0,8.96-4.01,8.96-8.96v-7.6c0-4.95-4.01-8.96-8.96-8.96h0Z"/>
    </g>
    <g>
      <rect class="cls-3" x="87.13" y="164.23" width="24.52" height="24.52" rx="8.46" ry="8.46"/>
      <path class="cls-5" d="M103.19,164.73c4.39,0,7.96,3.57,7.96,7.96v7.6c0,4.39-3.57,7.96-7.96,7.96h-7.6c-4.39,0-7.96-3.57-7.96-7.96v-7.6c0-4.39,3.57-7.96,7.96-7.96h7.6M103.19,163.73h-7.6c-4.95,0-8.96,4.01-8.96,8.96v7.6c0,4.95,4.01,8.96,8.96,8.96h7.6c4.95,0,8.96-4.01,8.96-8.96v-7.6c0-4.95-4.01-8.96-8.96-8.96h0Z"/>
    </g>
    <g>
      <path class="cls-3" d="M126.22,164.23h7.6c4.67,0,8.46,3.79,8.46,8.46v7.6c0,4.67-3.79,8.46-8.46,8.46h-7.6c-4.67,0-8.46-3.79-8.46-8.46v-7.6c0-4.67,3.79-8.46,8.46-8.46Z"/>
      <path class="cls-5" d="M133.82,164.73c4.39,0,7.96,3.57,7.96,7.96v7.6c0,4.39-3.57,7.96-7.96,7.96h-7.6c-4.39,0-7.96-3.57-7.96-7.96v-7.6c0-4.39,3.57-7.96,7.96-7.96h7.6M133.82,163.73h-7.6c-4.95,0-8.96,4.01-8.96,8.96v7.6c0,4.95,4.01,8.96,8.96,8.96h7.6c4.95,0,8.96-4.01,8.96-8.96v-7.6c0-4.95-4.01-8.96-8.96-8.96h0Z"/>
    </g>
    <g>
      <path class="cls-2" d="M156.85,164.23h7.6c4.67,0,8.46,3.79,8.46,8.46v7.6c0,4.67-3.79,8.46-8.46,8.46h-7.6c-4.67,0-8.46-3.79-8.46-8.46v-7.6c0-4.67,3.79-8.46,8.46-8.46Z"/>
      <path class="cls-5" d="M164.45,164.73c4.39,0,7.96,3.57,7.96,7.96v7.6c0,4.39-3.57,7.96-7.96,7.96h-7.6c-4.39,0-7.96-3.57-7.96-7.96v-7.6c0-4.39,3.57-7.96,7.96-7.96h7.6M164.45,163.73h-7.6c-4.95,0-8.96,4.01-8.96,8.96v7.6c0,4.95,4.01,8.96,8.96,8.96h7.6c4.95,0,8.96-4.01,8.96-8.96v-7.6c0-4.95-4.01-8.96-8.96-8.96h0Z"/>
    </g>
    <g>
      <path class="cls-2" d="M187.48,164.23h7.6c4.67,0,8.46,3.79,8.46,8.46v7.6c0,4.67-3.79,8.46-8.46,8.46h-7.6c-4.67,0-8.46-3.79-8.46-8.46v-7.6c0-4.67,3.79-8.46,8.46-8.46Z"/>
      <path class="cls-5" d="M195.08,164.73c4.39,0,7.96,3.57,7.96,7.96v7.6c0,4.39-3.57,7.96-7.96,7.96h-7.6c-4.39,0-7.96-3.57-7.96-7.96v-7.6c0-4.39,3.57-7.96,7.96-7.96h7.6M195.08,163.73h-7.6c-4.95,0-8.96,4.01-8.96,8.96v7.6c0,4.95,4.01,8.96,8.96,8.96h7.6c4.95,0,8.96-4.01,8.96-8.96v-7.6c0-4.95-4.01-8.96-8.96-8.96h0Z"/>
    </g>
    <g>
      <path class="cls-2" d="M63.94,194.86h7.6c4.67,0,8.46,3.79,8.46,8.46v7.6c0,4.67-3.79,8.46-8.46,8.46h-7.6c-4.67,0-8.46-3.79-8.46-8.46v-7.6c0-4.67,3.79-8.46,8.46-8.46Z"/>
      <path class="cls-5" d="M71.54,195.36c4.39,0,7.96,3.57,7.96,7.96v7.6c0,4.39-3.57,7.96-7.96,7.96h-7.6c-4.39,0-7.96-3.57-7.96-7.96v-7.6c0-4.39,3.57-7.96,7.96-7.96h7.6M71.54,194.36h-7.6c-4.95,0-8.96,4.01-8.96,8.96v7.6c0,4.95,4.01,8.96,8.96,8.96h7.6c4.95,0,8.96-4.01,8.96-8.96v-7.6c0-4.95-4.01-8.96-8.96-8.96h0Z"/>
    </g>
    <g>
      <rect class="cls-2" x="87.13" y="194.86" width="24.52" height="24.52" rx="8.46" ry="8.46"/>
      <path class="cls-5" d="M103.19,195.36c4.39,0,7.96,3.57,7.96,7.96v7.6c0,4.39-3.57,7.96-7.96,7.96h-7.6c-4.39,0-7.96-3.57-7.96-7.96v-7.6c0-4.39,3.57-7.96,7.96-7.96h7.6M103.19,194.36h-7.6c-4.95,0-8.96,4.01-8.96,8.96v7.6c0,4.95,4.01,8.96,8.96,8.96h7.6c4.95,0,8.96-4.01,8.96-8.96v-7.6c0-4.95-4.01-8.96-8.96-8.96h0Z"/>
    </g>
    <g>
      <path class="cls-2" d="M126.22,194.86h7.6c4.67,0,8.46,3.79,8.46,8.46v7.6c0,4.67-3.79,8.46-8.46,8.46h-7.6c-4.67,0-8.46-3.79-8.46-8.46v-7.6c0-4.67,3.79-8.46,8.46-8.46Z"/>
      <path class="cls-5" d="M133.82,195.36c4.39,0,7.96,3.57,7.96,7.96v7.6c0,4.39-3.57,7.96-7.96,7.96h-7.6c-4.39,0-7.96-3.57-7.96-7.96v-7.6c0-4.39,3.57-7.96,7.96-7.96h7.6M133.82,194.36h-7.6c-4.95,0-8.96,4.01-8.96,8.96v7.6c0,4.95,4.01,8.96,8.96,8.96h7.6c4.95,0,8.96-4.01,8.96-8.96v-7.6c0-4.95-4.01-8.96-8.96-8.96h0Z"/>
    </g>
    <g>
      <path class="cls-2" d="M156.85,194.86h7.6c4.67,0,8.46,3.79,8.46,8.46v7.6c0,4.67-3.79,8.46-8.46,8.46h-7.6c-4.67,0-8.46-3.79-8.46-8.46v-7.6c0-4.67,3.79-8.46,8.46-8.46Z"/>
      <path class="cls-5" d="M164.45,195.36c4.39,0,7.96,3.57,7.96,7.96v7.6c0,4.39-3.57,7.96-7.96,7.96h-7.6c-4.39,0-7.96-3.57-7.96-7.96v-7.6c0-4.39,3.57-7.96,7.96-7.96h7.6M164.45,194.36h-7.6c-4.95,0-8.96,4.01-8.96,8.96v7.6c0,4.95,4.01,8.96,8.96,8.96h7.6c4.95,0,8.96-4.01,8.96-8.96v-7.6c0-4.95-4.01-8.96-8.96-8.96h0Z"/>
    </g>
    <g>
      <path class="cls-2" d="M187.48,194.86h7.6c4.67,0,8.46,3.79,8.46,8.46v7.6c0,4.67-3.79,8.46-8.46,8.46h-7.6c-4.67,0-8.46-3.79-8.46-8.46v-7.6c0-4.67,3.79-8.46,8.46-8.46Z"/>
      <path class="cls-5" d="M195.08,195.36c4.39,0,7.96,3.57,7.96,7.96v7.6c0,4.39-3.57,7.96-7.96,7.96h-7.6c-4.39,0-7.96-3.57-7.96-7.96v-7.6c0-4.39,3.57-7.96,7.96-7.96h7.6M195.08,194.36h-7.6c-4.95,0-8.96,4.01-8.96,8.96v7.6c0,4.95,4.01,8.96,8.96,8.96h7.6c4.95,0,8.96-4.01,8.96-8.96v-7.6c0-4.95-4.01-8.96-8.96-8.96h0Z"/>
    </g>
    <g>
      <path class="cls-3" d="M125.79,41.17h7.6c4.67,0,8.46,3.79,8.46,8.46v7.6c0,4.67-3.79,8.46-8.46,8.46h-7.6c-4.67,0-8.46-3.79-8.46-8.46v-7.6c0-4.67,3.79-8.46,8.46-8.46Z"/>
      <path class="cls-5" d="M133.39,41.67c4.39,0,7.96,3.57,7.96,7.96v7.6c0,4.39-3.57,7.96-7.96,7.96h-7.6c-4.39,0-7.96-3.57-7.96-7.96v-7.6c0-4.39,3.57-7.96,7.96-7.96h7.6M133.39,40.67h-7.6c-4.95,0-8.96,4.01-8.96,8.96v7.6c0,4.95,4.01,8.96,8.96,8.96h7.6c4.95,0,8.96-4.01,8.96-8.96v-7.6c0-4.95-4.01-8.96-8.96-8.96h0Z"/>
    </g>
    <g>
      <rect class="cls-3" x="86.7" y="41.17" width="24.52" height="24.52" rx="6.19" ry="6.19"/>
      <path class="cls-5" d="M105.03,41.67c3.14,0,5.69,2.55,5.69,5.69v12.15c0,3.14-2.55,5.69-5.69,5.69h-12.15c-3.14,0-5.69-2.55-5.69-5.69v-12.15c0-3.14,2.55-5.69,5.69-5.69h12.15M105.03,40.67h-12.15c-3.69,0-6.69,2.99-6.69,6.69v12.15c0,3.69,2.99,6.69,6.69,6.69h12.15c3.69,0,6.69-2.99,6.69-6.69v-12.15c0-3.69-2.99-6.69-6.69-6.69h0Z"/>
    </g>
  </g>
</svg>